<svg xmlns="http://www.w3.org/2000/svg" width="302" height="56.231" viewBox="0 0 302 56.231">
  <g id="Group_16" data-name="Group 16" transform="translate(-156.521 -359.611)">
    <g id="Layer_1" data-name="Layer 1" transform="translate(156.521 366.964)">
      <g id="Group_8" data-name="Group 8">
        <path id="Path_7" data-name="Path 7" d="M185.76,367.307l-3.326,4.066h-.329a5.522,5.522,0,0,0-3-1.519,19.644,19.644,0,0,0-3.409-.205h-3.08v21.93a9.61,9.61,0,0,0,.205,2.546,2.045,2.045,0,0,0,1.889,1.437v.411H166.87v-.411a2.34,2.34,0,0,0,1.725-1.273,5.23,5.23,0,0,0,.329-2.177V369.648h-7.966a7.569,7.569,0,0,0-4.149,1.232l-.287-.205,2.383-3.9h.327a4.624,4.624,0,0,0,3.039.862h19.876a9.984,9.984,0,0,0,3.285-.452Z" transform="translate(-156.521 -366.773)" fill="#fff"/>
        <path id="Path_8" data-name="Path 8" d="M222.6,395.96h-7.844v-.411a2.494,2.494,0,0,0,1.807-1.273,6.407,6.407,0,0,0,.287-2.259V381.956H196.111v3.367q-.042,2.259-.041,3.409c0,.22-.014.63-.041,1.232s-.041,1.082-.041,1.437q0,3.9,2.218,4.148v.411h-7.885v-.411a2.463,2.463,0,0,0,1.889-1.478,7.9,7.9,0,0,0,.246-2.464q0-2.341.041-6.961t.041-6.92q0-4.189-.123-7.187a3.538,3.538,0,0,0-.452-1.889,2.5,2.5,0,0,0-1.643-1.027v-.411h7.885v.411a2.058,2.058,0,0,0-1.807,1.232,6.37,6.37,0,0,0-.287,2.3V379.7H216.85q0-.986.041-2.957v-2.957q0-.328.041-1.068v-1.15q0-3.366-2.177-3.942v-.411H222.6v.411a2.038,2.038,0,0,0-1.766,1.191,6.051,6.051,0,0,0-.287,2.218q0,2.382-.041,7.146t-.041,7.146q0,5.3.082,7.269a4.507,4.507,0,0,0,.37,1.971,1.963,1.963,0,0,0,1.684.986Z" transform="translate(-155.62 -366.761)" fill="#fff"/>
        <path id="Path_9" data-name="Path 9" d="M251,392.192l-1.93,4.393h-.205a3.321,3.321,0,0,0-2.382-.616H228.121v-.411a2.463,2.463,0,0,0,1.889-1.478,7.9,7.9,0,0,0,.246-2.464q0-2.341.041-6.961t.041-6.92q0-4.189-.123-7.187a3.538,3.538,0,0,0-.452-1.889,2.5,2.5,0,0,0-1.643-1.027v-.411h18.193a21.333,21.333,0,0,0,4.476-.37l.123.123L247.628,371h-.205q-.616-1.14-3.08-1.436-.576-.042-3.737-.042-2.259,0-6.694.083v9.609h9.9a8.235,8.235,0,0,0,4.148-.945l.205.123-2.218,4.353H245.7a3.926,3.926,0,0,0-2.793-1.191q-.616-.082-3.244-.082-.946,0-2.854.041t-2.9.041v11.663h12.156a8.575,8.575,0,0,0,4.723-1.191Z" transform="translate(-154.612 -366.771)" fill="#fff"/>
        <path id="Path_10" data-name="Path 10" d="M298.194,392.192l-1.931,4.393h-.2a3.322,3.322,0,0,0-2.383-.616H275.32v-.411a2.464,2.464,0,0,0,1.889-1.478,7.9,7.9,0,0,0,.246-2.464q0-2.341.041-6.961t.041-6.92q0-4.189-.123-7.187a3.537,3.537,0,0,0-.452-1.889,2.5,2.5,0,0,0-1.643-1.027v-.411h18.193a21.333,21.333,0,0,0,4.476-.37l.123.123L294.827,371h-.205q-.617-1.14-3.08-1.436-.576-.042-3.737-.042-2.259,0-6.694.083v9.609h9.9a8.235,8.235,0,0,0,4.148-.945l.205.123-2.218,4.353H292.9a3.927,3.927,0,0,0-2.794-1.191q-.614-.082-3.243-.082-.946,0-2.855.041t-2.894.041v11.663h12.156a8.578,8.578,0,0,0,4.723-1.191Z" transform="translate(-153.353 -366.771)" fill="#fff"/>
        <path id="Path_11" data-name="Path 11" d="M379.476,367.307l-3.325,4.066h-.33a5.522,5.522,0,0,0-3-1.519,19.651,19.651,0,0,0-3.409-.205h-3.08v21.93a9.624,9.624,0,0,0,.2,2.546,2.047,2.047,0,0,0,1.89,1.437v.411h-7.844v-.411a2.34,2.34,0,0,0,1.725-1.273,5.23,5.23,0,0,0,.329-2.177V369.648h-7.967a7.566,7.566,0,0,0-4.148,1.232l-.288-.205,2.382-3.9h.328a4.623,4.623,0,0,0,3.039.862h19.875a9.987,9.987,0,0,0,3.286-.452Z" transform="translate(-151.355 -366.773)" fill="#fff"/>
        <path id="Path_12" data-name="Path 12" d="M414.413,381.393a13.6,13.6,0,0,1-5.255,10.842,17.369,17.369,0,0,1-11.541,4.189A19.286,19.286,0,0,1,385.5,392.44a13.363,13.363,0,0,1-5.586-11.047,13.048,13.048,0,0,1,5.257-10.8,18.284,18.284,0,0,1,11.745-3.819,19.283,19.283,0,0,1,11.95,3.778A12.924,12.924,0,0,1,414.413,381.393Zm-4.311,0a11.474,11.474,0,0,0-3.9-8.953,13.669,13.669,0,0,0-9.444-3.491,12.177,12.177,0,0,0-12.485,12.484,12.31,12.31,0,0,0,3.718,9.158,12.675,12.675,0,0,0,9.261,3.655A12.728,12.728,0,0,0,410.1,381.393Z" transform="translate(-150.564 -366.773)" fill="#fff"/>
        <path id="Path_13" data-name="Path 13" d="M451.546,395.96h-5.421l-23.244-23.819q0,2.178-.041,6.55t-.041,6.591q0,4.8.082,6.817.123,3.163,2.423,3.45v.411h-7.063v-.411a2.469,2.469,0,0,0,1.807-1.314,6.228,6.228,0,0,0,.288-2.259V370.5a2.639,2.639,0,0,0-2.259-2.875v-.411h5.3l23.038,23.531q0-2.218.062-6.673t.062-6.673q0-4.64-.123-6.961a2.7,2.7,0,0,0-2.053-2.813v-.411h7.063v.411a2.348,2.348,0,0,0-2.053,1.4,6.856,6.856,0,0,0-.37,2.628q0,2.218-.062,6.653t-.062,6.653q0,4.354.123,6.858.163,3.122,2.546,3.737Z" transform="translate(-149.546 -366.761)" fill="#fff"/>
      </g>
      <g id="Group_9" data-name="Group 9" transform="translate(15.473 42.131)">
        <path id="Path_14" data-name="Path 14" d="M174.318,407.9h2.145l2.727,6.516h-2.348l-.342-.87h-2.265l-.332.87h-2.311Zm1.646,4.113-.592-1.572-.591,1.572Z" transform="translate(-171.592 -407.808)" fill="#fff"/>
        <path id="Path_15" data-name="Path 15" d="M188.912,409.775h-1.9v-1.83h5.97v1.83h-1.9v4.641h-2.163Z" transform="translate(-171.181 -407.806)" fill="#fff"/>
        <path id="Path_16" data-name="Path 16" d="M213.172,411.512v-3.567h2.2v3.54c0,.8.417,1.146,1,1.146s1-.314,1-1.1v-3.586h2.2v3.521c0,2.209-1.284,3.078-3.216,3.078S213.172,413.656,213.172,411.512Z" transform="translate(-170.483 -407.806)" fill="#fff"/>
        <path id="Path_17" data-name="Path 17" d="M228.877,407.945H230.9l2.3,2.855v-2.855h2.145v6.47h-1.923l-2.4-2.987v2.987h-2.144Z" transform="translate(-170.064 -407.806)" fill="#fff"/>
        <path id="Path_18" data-name="Path 18" d="M244.734,407.945H246.9v6.47h-2.163Z" transform="translate(-169.642 -407.806)" fill="#fff"/>
        <path id="Path_19" data-name="Path 19" d="M255.93,407.945h2.422l1.257,3.632,1.257-3.632h2.386l-2.626,6.516h-2.071Z" transform="translate(-169.343 -407.806)" fill="#fff"/>
        <path id="Path_20" data-name="Path 20" d="M272.139,407.945h5.518v1.774h-3.393v.656h3.161v1.562h-3.161v.7H277.7v1.775h-5.565Z" transform="translate(-168.911 -407.806)" fill="#fff"/>
        <path id="Path_21" data-name="Path 21" d="M286.935,407.945H290.1a3.149,3.149,0,0,1,2.328.739,2.033,2.033,0,0,1,.591,1.535v.017a2.093,2.093,0,0,1-1.275,1.978l1.506,2.2H290.78l-1.221-1.849H289.1v1.849h-2.162Zm3.1,3.078c.518,0,.833-.232.833-.628v-.02c0-.415-.324-.619-.822-.619H289.1v1.267Z" transform="translate(-168.516 -407.806)" fill="#fff"/>
        <path id="Path_22" data-name="Path 22" d="M301.658,413.447l1.156-1.378a3.7,3.7,0,0,0,2.264.759c.388,0,.554-.1.554-.277v-.019c0-.185-.2-.286-.9-.425-1.451-.3-2.726-.713-2.726-2.08v-.017c0-1.23.96-2.182,2.745-2.182a4.477,4.477,0,0,1,2.92.887l-1.053,1.461a3.39,3.39,0,0,0-1.941-.638c-.323,0-.47.11-.47.267v.018c0,.176.174.286.858.416,1.655.3,2.764.786,2.764,2.089v.018c0,1.358-1.118,2.191-2.855,2.191A5,5,0,0,1,301.658,413.447Z" transform="translate(-168.124 -407.81)" fill="#fff"/>
        <path id="Path_23" data-name="Path 23" d="M316.995,407.945h2.163v6.47h-2.163Z" transform="translate(-167.715 -407.806)" fill="#fff"/>
        <path id="Path_24" data-name="Path 24" d="M330.319,409.775h-1.9v-1.83h5.97v1.83h-1.9v4.641h-2.163Z" transform="translate(-167.41 -407.806)" fill="#fff"/>
        <path id="Path_25" data-name="Path 25" d="M345.454,412.123l-2.44-4.178h2.421l1.109,2.125,1.119-2.125h2.393l-2.439,4.15v2.32h-2.162Z" transform="translate(-167.021 -407.806)" fill="#fff"/>
        <path id="Path_26" data-name="Path 26" d="M370.005,407.945h2.911c1.72,0,2.893.767,2.893,2.3v.02c0,1.562-1.192,2.393-2.939,2.393h-.7v1.757h-2.162Zm2.744,3.17c.555,0,.924-.249.924-.712v-.017c0-.472-.342-.712-.915-.712h-.591v1.442Z" transform="translate(-166.301 -407.806)" fill="#fff"/>
        <path id="Path_27" data-name="Path 27" d="M384.918,407.945h2.162v4.621h3.041v1.849h-5.2Z" transform="translate(-165.903 -407.806)" fill="#fff"/>
        <path id="Path_28" data-name="Path 28" d="M401.522,407.9h2.145l2.726,6.516h-2.347l-.342-.87h-2.265l-.333.87h-2.311Zm1.646,4.113-.592-1.572-.591,1.572Z" transform="translate(-165.533 -407.808)" fill="#fff"/>
        <path id="Path_29" data-name="Path 29" d="M414.716,411.2v-.019a3.343,3.343,0,0,1,3.437-3.373,3.174,3.174,0,0,1,2.931,1.682l-1.783,1.044a1.257,1.257,0,0,0-1.174-.784,1.287,1.287,0,0,0-1.211,1.414v.017a1.28,1.28,0,0,0,1.211,1.433,1.328,1.328,0,0,0,1.221-.813l1.783,1.007a3.428,3.428,0,0,1-6.415-1.608Z" transform="translate(-165.109 -407.81)" fill="#fff"/>
        <path id="Path_30" data-name="Path 30" d="M430.187,407.945H435.7v1.774h-3.391v.656h3.161v1.562h-3.161v.7h3.437v1.775h-5.564Z" transform="translate(-164.696 -407.806)" fill="#fff"/>
      </g>
    </g>
    <g id="_ÎÓÈ_1" data-name="—ÎÓÈ 1" transform="translate(305.795 359.611)">
      <g id="Group_14" data-name="Group 14">
        <g id="Group_10" data-name="Group 10" transform="translate(0 7.895)">
          <path id="Path_31" data-name="Path 31" d="M304.484,397a2.466,2.466,0,0,1-1.743-4.209l9.851-9.85a1.047,1.047,0,0,0,0-1.478l-9.948-9.948a2.466,2.466,0,0,1,3.488-3.488l9.949,9.949a5.982,5.982,0,0,1,0,8.451l-9.85,9.851A2.458,2.458,0,0,1,304.484,397Z" transform="translate(-301.918 -367.301)" fill="#f79400"/>
        </g>
        <g id="Group_11" data-name="Group 11" transform="translate(30.222 7.895)">
          <path id="Path_32" data-name="Path 32" d="M344.8,397a2.458,2.458,0,0,1-1.743-.722l-9.95-9.949a5.978,5.978,0,0,1,0-8.454l9.85-9.849a2.466,2.466,0,0,1,3.488,3.488l-9.85,9.85a1.045,1.045,0,0,0,0,1.477l9.95,9.949A2.466,2.466,0,0,1,344.8,397Z" transform="translate(-331.355 -367.301)" fill="#b1af00"/>
        </g>
        <g id="Group_12" data-name="Group 12" transform="translate(8.217 28.696)">
          <path id="Path_33" data-name="Path 33" d="M312.388,403.468a2.466,2.466,0,0,1-1.743-4.209l9.949-9.95a5.986,5.986,0,0,1,8.453,0l9.851,9.851a2.466,2.466,0,0,1-3.488,3.488l-9.851-9.85a1.046,1.046,0,0,0-1.477,0l-9.95,9.95A2.456,2.456,0,0,1,312.388,403.468Z" transform="translate(-309.922 -387.561)" fill="#49b6a5"/>
        </g>
        <g id="Group_13" data-name="Group 13" transform="translate(8.217)">
          <path id="Path_34" data-name="Path 34" d="M324.721,375.52a5.938,5.938,0,0,1-4.227-1.75l-9.85-9.851a2.465,2.465,0,0,1,3.487-3.487l9.851,9.85a1.043,1.043,0,0,0,1.476,0l9.952-9.949a2.466,2.466,0,0,1,3.488,3.488l-9.95,9.949A5.932,5.932,0,0,1,324.721,375.52Z" transform="translate(-309.922 -359.61)" fill="#fe2b09"/>
        </g>
      </g>
    </g>
  </g>
</svg>
