<svg xmlns="http://www.w3.org/2000/svg" width="63.585" height="61.477" viewBox="0 0 63.585 61.477">
  <g id="Group_5" data-name="Group 5" transform="translate(-301.918 -359.611)">
    <g id="Group_1" data-name="Group 1" transform="translate(301.918 370.492)">
      <path id="Path_1" data-name="Path 1" d="M305.454,408.23a3.4,3.4,0,0,1-2.4-5.8l13.577-13.576a1.443,1.443,0,0,0,0-2.038L302.914,373.1a3.4,3.4,0,0,1,4.807-4.807l13.713,13.713a8.245,8.245,0,0,1,0,11.649l-13.576,13.578A3.388,3.388,0,0,1,305.454,408.23Z" transform="translate(-301.918 -367.3)" fill="#f79400"/>
    </g>
    <g id="Group_2" data-name="Group 2" transform="translate(343.573 370.492)">
      <path id="Path_2" data-name="Path 2" d="M349.885,408.23a3.388,3.388,0,0,1-2.4-.995l-13.715-13.713a8.24,8.24,0,0,1,0-11.652L347.344,368.3a3.4,3.4,0,0,1,4.807,4.807l-13.576,13.576a1.44,1.44,0,0,0,0,2.036l13.715,13.713a3.4,3.4,0,0,1-2.4,5.8Z" transform="translate(-331.355 -367.3)" fill="#b1af00"/>
    </g>
    <g id="Group_3" data-name="Group 3" transform="translate(313.244 399.162)">
      <path id="Path_3" data-name="Path 3" d="M313.321,409.486a3.4,3.4,0,0,1-2.4-5.8l13.713-13.715a8.251,8.251,0,0,1,11.65,0l13.578,13.578a3.4,3.4,0,0,1-4.807,4.807l-13.577-13.576a1.442,1.442,0,0,0-2.036,0l-13.715,13.715A3.385,3.385,0,0,1,313.321,409.486Z" transform="translate(-309.922 -387.561)" fill="#49b6a5"/>
    </g>
    <g id="Group_4" data-name="Group 4" transform="translate(313.244 359.611)">
      <path id="Path_4" data-name="Path 4" d="M330.32,381.539a8.184,8.184,0,0,1-5.826-2.413l-13.576-13.577a3.4,3.4,0,0,1,4.806-4.806L329.3,374.319a1.438,1.438,0,0,0,2.035,0l13.716-13.713a3.4,3.4,0,0,1,4.807,4.807l-13.715,13.713A8.176,8.176,0,0,1,330.32,381.539Z" transform="translate(-309.922 -359.61)" fill="#fe2b09"/>
    </g>
  </g>
</svg>
