<svg xmlns="http://www.w3.org/2000/svg" width="228" height="42.453" viewBox="0 0 228 42.453">
  <g id="Group_15" data-name="Group 15" transform="translate(-156.521 -359.611)">
    <g id="Layer_1" data-name="Layer 1" transform="translate(156.521 365.162)">
      <g id="Group_8" data-name="Group 8">
        <path id="Path_7" data-name="Path 7" d="M178.6,367.176l-2.511,3.069h-.248a4.169,4.169,0,0,0-2.263-1.147,14.829,14.829,0,0,0-2.573-.155h-2.325V385.5a7.255,7.255,0,0,0,.155,1.922,1.544,1.544,0,0,0,1.426,1.085v.31h-5.922v-.31a1.767,1.767,0,0,0,1.3-.961,3.948,3.948,0,0,0,.248-1.643V368.943H159.87a5.715,5.715,0,0,0-3.132.93l-.217-.155,1.8-2.945h.247a3.491,3.491,0,0,0,2.294.651h15.006a7.537,7.537,0,0,0,2.48-.341Z" transform="translate(-156.521 -366.773)" fill="#1a1818"/>
        <path id="Path_8" data-name="Path 8" d="M214.69,388.916h-5.922v-.31a1.883,1.883,0,0,0,1.364-.961,4.837,4.837,0,0,0,.217-1.705v-7.6H194.693v2.542q-.031,1.706-.031,2.573,0,.249-.031.93t-.031,1.085q0,2.946,1.674,3.131v.31h-5.953v-.31a1.859,1.859,0,0,0,1.426-1.116,5.964,5.964,0,0,0,.186-1.86q0-1.767.031-5.255T192,375.15q0-3.162-.093-5.426a2.671,2.671,0,0,0-.341-1.426,1.887,1.887,0,0,0-1.24-.775v-.31h5.953v.31a1.554,1.554,0,0,0-1.364.93,4.809,4.809,0,0,0-.217,1.736v6.449H210.35q0-.744.031-2.232v-2.232q0-.248.031-.806V370.5q0-2.542-1.643-2.976v-.31h5.922v.31a1.539,1.539,0,0,0-1.333.9,4.568,4.568,0,0,0-.217,1.674q0,1.8-.031,5.395t-.031,5.395q0,4,.062,5.488a3.4,3.4,0,0,0,.279,1.488,1.482,1.482,0,0,0,1.271.744Z" transform="translate(-164.123 -366.872)" fill="#1a1818"/>
        <path id="Path_9" data-name="Path 9" d="M245.39,385.983l-1.457,3.317h-.155a2.507,2.507,0,0,0-1.8-.465H228.121v-.31a1.859,1.859,0,0,0,1.426-1.116,5.962,5.962,0,0,0,.186-1.86q0-1.767.031-5.255t.031-5.224q0-3.162-.093-5.426a2.671,2.671,0,0,0-.341-1.426,1.887,1.887,0,0,0-1.24-.775v-.31h13.735a16.1,16.1,0,0,0,3.379-.279l.093.093-2.48,3.038h-.155q-.465-.86-2.325-1.084-.435-.031-2.821-.032-1.706,0-5.054.063v7.254h7.472a6.218,6.218,0,0,0,3.131-.713l.155.093-1.674,3.286h-.186a2.964,2.964,0,0,0-2.108-.9q-.465-.062-2.449-.062-.714,0-2.155.031t-2.186.031v8.805h9.177a6.474,6.474,0,0,0,3.565-.9Z" transform="translate(-172.624 -366.791)" fill="#1a1818"/>
        <path id="Path_10" data-name="Path 10" d="M292.589,385.983l-1.458,3.317h-.154a2.508,2.508,0,0,0-1.8-.465H275.32v-.31a1.86,1.86,0,0,0,1.426-1.116,5.963,5.963,0,0,0,.186-1.86q0-1.767.031-5.255t.031-5.224q0-3.162-.093-5.426a2.671,2.671,0,0,0-.341-1.426,1.887,1.887,0,0,0-1.24-.775v-.31h13.735a16.105,16.105,0,0,0,3.379-.279l.093.093-2.48,3.038h-.155q-.466-.86-2.325-1.084-.435-.031-2.821-.032-1.706,0-5.054.063v7.254h7.472a6.218,6.218,0,0,0,3.131-.713l.155.093-1.674,3.286h-.186a2.965,2.965,0,0,0-2.109-.9q-.464-.062-2.449-.062-.714,0-2.156.031t-2.185.031v8.805h9.177a6.476,6.476,0,0,0,3.565-.9Z" transform="translate(-183.239 -366.791)" fill="#1a1818"/>
        <path id="Path_11" data-name="Path 11" d="M372.312,367.176l-2.511,3.069h-.249a4.169,4.169,0,0,0-2.263-1.147,14.835,14.835,0,0,0-2.573-.155h-2.325V385.5a7.266,7.266,0,0,0,.154,1.922,1.545,1.545,0,0,0,1.427,1.085v.31h-5.922v-.31a1.767,1.767,0,0,0,1.3-.961,3.948,3.948,0,0,0,.248-1.643V368.943h-6.015a5.712,5.712,0,0,0-3.131.93l-.217-.155,1.8-2.945h.248a3.49,3.49,0,0,0,2.294.651h15.005a7.54,7.54,0,0,0,2.481-.341Z" transform="translate(-200.088 -366.773)" fill="#1a1818"/>
        <path id="Path_12" data-name="Path 12" d="M405.96,377.81A10.268,10.268,0,0,1,401.993,386a13.113,13.113,0,0,1-8.713,3.162,14.56,14.56,0,0,1-9.145-3.007,10.088,10.088,0,0,1-4.217-8.34,9.851,9.851,0,0,1,3.969-8.154,13.8,13.8,0,0,1,8.867-2.883,14.558,14.558,0,0,1,9.022,2.852A9.757,9.757,0,0,1,405.96,377.81Zm-3.255,0a8.663,8.663,0,0,0-2.946-6.759,10.32,10.32,0,0,0-7.13-2.635,9.193,9.193,0,0,0-9.426,9.425,9.293,9.293,0,0,0,2.807,6.914A9.569,9.569,0,0,0,393,387.515a9.609,9.609,0,0,0,9.7-9.7Z" transform="translate(-206.763 -366.773)" fill="#1a1818"/>
        <path id="Path_13" data-name="Path 13" d="M443.345,388.916h-4.092L421.7,370.933q0,1.644-.031,4.945t-.031,4.976q0,3.628.062,5.147.093,2.388,1.829,2.6v.31H418.2v-.31a1.864,1.864,0,0,0,1.364-.992,4.7,4.7,0,0,0,.217-1.705V369.693a1.993,1.993,0,0,0-1.705-2.17v-.31h4l17.393,17.765q0-1.674.047-5.038t.047-5.038q0-3.5-.093-5.255a2.04,2.04,0,0,0-1.55-2.124v-.31h5.333v.31a1.773,1.773,0,0,0-1.55,1.054,5.176,5.176,0,0,0-.279,1.984q0,1.674-.047,5.023t-.047,5.023q0,3.287.093,5.178.123,2.357,1.922,2.821Z" transform="translate(-215.345 -366.872)" fill="#1a1818"/>
      </g>
      <g id="Group_9" data-name="Group 9" transform="translate(11.682 31.808)">
        <path id="Path_14" data-name="Path 14" d="M173.65,407.9h1.619l2.059,4.92h-1.773l-.258-.656h-1.71l-.25.656h-1.745Zm1.242,3.105-.447-1.187L174,411.005Z" transform="translate(-171.592 -407.83)" fill="#050606"/>
        <path id="Path_15" data-name="Path 15" d="M188.446,409.326h-1.437v-1.381h4.507v1.381h-1.437v3.5h-1.633Z" transform="translate(-175.059 -407.84)" fill="#050606"/>
        <path id="Path_16" data-name="Path 16" d="M213.172,410.638v-2.693h1.66v2.673c0,.607.315.865.753.865s.754-.237.754-.83v-2.707H218V410.6a2.115,2.115,0,0,1-2.428,2.324A2.092,2.092,0,0,1,213.172,410.638Z" transform="translate(-180.943 -407.84)" fill="#050606"/>
        <path id="Path_17" data-name="Path 17" d="M228.877,407.945H230.4l1.738,2.156v-2.156h1.619v4.885H232.31l-1.815-2.255v2.255h-1.618Z" transform="translate(-184.475 -407.84)" fill="#050606"/>
        <path id="Path_18" data-name="Path 18" d="M244.734,407.945h1.633v4.885h-1.633Z" transform="translate(-188.042 -407.84)" fill="#050606"/>
        <path id="Path_19" data-name="Path 19" d="M255.93,407.945h1.828l.949,2.742.949-2.742h1.8l-1.983,4.92h-1.563Z" transform="translate(-190.56 -407.84)" fill="#050606"/>
        <path id="Path_20" data-name="Path 20" d="M272.139,407.945h4.166v1.339h-2.562v.5h2.387v1.179h-2.387v.531h2.6v1.34h-4.2Z" transform="translate(-194.205 -407.84)" fill="#050606"/>
        <path id="Path_21" data-name="Path 21" d="M286.935,407.945h2.387a2.377,2.377,0,0,1,1.758.558,1.535,1.535,0,0,1,.446,1.159v.013a1.58,1.58,0,0,1-.963,1.494l1.137,1.661h-1.863l-.922-1.4h-.349v1.4h-1.632Zm2.337,2.324c.391,0,.629-.175.629-.474v-.015c0-.313-.245-.467-.621-.467h-.712v.956Z" transform="translate(-197.533 -407.84)" fill="#050606"/>
        <path id="Path_22" data-name="Path 22" d="M301.658,412.07l.873-1.04a2.8,2.8,0,0,0,1.709.573c.293,0,.419-.077.419-.209v-.014c0-.14-.153-.216-.677-.321-1.1-.223-2.058-.538-2.058-1.57v-.013c0-.929.725-1.647,2.073-1.647a3.38,3.38,0,0,1,2.2.67l-.8,1.1a2.559,2.559,0,0,0-1.466-.481c-.244,0-.355.083-.355.2v.014c0,.133.132.216.648.314,1.249.23,2.087.594,2.087,1.577v.014c0,1.025-.844,1.654-2.156,1.654A3.777,3.777,0,0,1,301.658,412.07Z" transform="translate(-200.844 -407.814)" fill="#050606"/>
        <path id="Path_23" data-name="Path 23" d="M316.995,407.945h1.633v4.885h-1.633Z" transform="translate(-204.293 -407.84)" fill="#050606"/>
        <path id="Path_24" data-name="Path 24" d="M329.853,409.326h-1.437v-1.381h4.507v1.381h-1.437v3.5h-1.633Z" transform="translate(-206.862 -407.84)" fill="#050606"/>
        <path id="Path_25" data-name="Path 25" d="M344.856,411.1l-1.842-3.154h1.828l.837,1.6.845-1.6h1.807l-1.842,3.133v1.752h-1.632Z" transform="translate(-210.145 -407.84)" fill="#050606"/>
        <path id="Path_26" data-name="Path 26" d="M370.005,407.945h2.2c1.3,0,2.184.579,2.184,1.737v.015c0,1.179-.9,1.807-2.219,1.807h-.53v1.326h-1.632Zm2.072,2.393c.419,0,.7-.188.7-.538v-.013c0-.357-.258-.538-.691-.538h-.446v1.089Z" transform="translate(-216.215 -407.84)" fill="#050606"/>
        <path id="Path_27" data-name="Path 27" d="M384.918,407.945h1.632v3.489h2.3v1.4h-3.928Z" transform="translate(-219.569 -407.84)" fill="#050606"/>
        <path id="Path_28" data-name="Path 28" d="M400.854,407.9h1.619l2.058,4.92h-1.772l-.258-.656h-1.71l-.251.656H398.8Zm1.242,3.105-.447-1.187-.446,1.187Z" transform="translate(-222.69 -407.83)" fill="#050606"/>
        <path id="Path_29" data-name="Path 29" d="M414.716,410.371v-.015a2.524,2.524,0,0,1,2.6-2.546,2.4,2.4,0,0,1,2.213,1.27l-1.346.788a.949.949,0,0,0-.887-.592.972.972,0,0,0-.915,1.067v.013a.966.966,0,0,0,.915,1.082,1,1,0,0,0,.922-.614l1.346.76a2.588,2.588,0,0,1-4.843-1.214Z" transform="translate(-226.271 -407.81)" fill="#050606"/>
        <path id="Path_30" data-name="Path 30" d="M430.187,407.945h4.165v1.339h-2.56v.5h2.387v1.179h-2.387v.531h2.6v1.34h-4.2Z" transform="translate(-229.75 -407.84)" fill="#050606"/>
      </g>
    </g>
    <g id="_ÎÓÈ_1" data-name="—ÎÓÈ 1" transform="translate(269.218 359.611)">
      <g id="Group_14" data-name="Group 14">
        <g id="Group_10" data-name="Group 10" transform="translate(0 5.961)">
          <path id="Path_31" data-name="Path 31" d="M303.855,389.72a1.861,1.861,0,0,1-1.316-3.178l7.437-7.436a.79.79,0,0,0,0-1.116l-7.511-7.511a1.862,1.862,0,0,1,2.633-2.633l7.511,7.512a4.516,4.516,0,0,1,0,6.381l-7.436,7.437A1.856,1.856,0,0,1,303.855,389.72Z" transform="translate(-301.918 -367.301)" fill="#f79400"/>
        </g>
        <g id="Group_11" data-name="Group 11" transform="translate(22.817 5.961)">
          <path id="Path_32" data-name="Path 32" d="M341.5,389.72a1.856,1.856,0,0,1-1.316-.545l-7.512-7.511a4.513,4.513,0,0,1,0-6.382l7.436-7.436a1.862,1.862,0,0,1,2.633,2.633l-7.436,7.436a.789.789,0,0,0,0,1.115l7.512,7.512a1.861,1.861,0,0,1-1.317,3.178Z" transform="translate(-331.355 -367.301)" fill="#b1af00"/>
        </g>
        <g id="Group_12" data-name="Group 12" transform="translate(6.204 21.664)">
          <path id="Path_33" data-name="Path 33" d="M311.784,399.57a1.861,1.861,0,0,1-1.316-3.178l7.511-7.512a4.519,4.519,0,0,1,6.381,0l7.437,7.437a1.862,1.862,0,0,1-2.633,2.633l-7.437-7.436a.79.79,0,0,0-1.115,0l-7.512,7.512A1.854,1.854,0,0,1,311.784,399.57Z" transform="translate(-309.922 -387.561)" fill="#49b6a5"/>
        </g>
        <g id="Group_13" data-name="Group 13" transform="translate(6.204)">
          <path id="Path_34" data-name="Path 34" d="M321.1,371.622A4.483,4.483,0,0,1,317.9,370.3l-7.436-7.437a1.861,1.861,0,1,1,2.632-2.632l7.437,7.436a.788.788,0,0,0,1.115,0l7.513-7.511a1.862,1.862,0,0,1,2.633,2.633l-7.512,7.512A4.478,4.478,0,0,1,321.1,371.622Z" transform="translate(-309.922 -359.611)" fill="#fe2b09"/>
        </g>
      </g>
    </g>
  </g>
</svg>
